<svg width="24" height="24" viewBox="0 0 24 24" fill="none" xmlns="http://www.w3.org/2000/svg">
<path fill-rule="evenodd" clip-rule="evenodd" d="M6.84999 9C6.84999 7.68111 7.29058 6.39001 8.13529 5.43971C8.9661 4.50505 10.2307 3.85 12 3.85C13.7693 3.85 15.0339 4.50505 15.8647 5.43971C16.7094 6.39001 17.15 7.68111 17.15 9C17.15 10.2596 17.7766 11.1982 18.2542 11.9137L18.2928 11.9715C18.811 12.7489 19.15 13.2938 19.15 14C19.15 14.9743 18.4563 15.7578 17.0164 16.3363C15.599 16.9058 13.7185 17.15 12 17.15C10.2815 17.15 8.40099 16.9058 6.98356 16.3363C5.54372 15.7578 4.84999 14.9743 4.84999 14C4.84999 13.3065 5.17421 12.8297 5.6981 12.0754C6.20173 11.3504 6.84999 10.4079 6.84999 9ZM12 2.15C9.76935 2.15 8.0339 2.99495 6.8647 4.31029C5.70941 5.60999 5.14999 7.31889 5.14999 9C5.14999 9.83353 4.79826 10.391 4.30188 11.1056L4.23215 11.2057C3.76255 11.8785 3.14999 12.7561 3.14999 14C3.14999 16.0258 4.67849 17.2422 6.34977 17.9137C8.04345 18.5942 10.1629 18.85 12 18.85C13.8371 18.85 15.9565 18.5942 17.6502 17.9137C19.3215 17.2422 20.85 16.0257 20.85 14C20.85 12.7404 20.2234 11.8018 19.7458 11.0863L19.7072 11.0285C19.189 10.2511 18.85 9.70622 18.85 9C18.85 7.31889 18.2906 5.60999 17.1353 4.31029C15.9661 2.99495 14.2306 2.15 12 2.15ZM9.5285 19.2928C9.91602 19.0344 10.4385 19.1363 10.701 19.5193L10.7074 19.5278C10.7164 19.5397 10.7341 19.5621 10.7603 19.5915C10.8132 19.6511 10.8969 19.7352 11.01 19.82C11.2335 19.9877 11.559 20.15 12 20.15C12.441 20.15 12.7665 19.9877 12.99 19.82C13.103 19.7352 13.1868 19.6511 13.2397 19.5915C13.2659 19.5621 13.2836 19.5397 13.2926 19.5278L13.299 19.5193C13.5615 19.1363 14.084 19.0344 14.4715 19.2928C14.8621 19.5532 14.9676 20.0809 14.7072 20.4715L14 20C14.7072 20.4715 14.707 20.4718 14.7068 20.4721L14.7064 20.4728L14.7054 20.4742L14.7033 20.4774L14.6983 20.4847L14.6849 20.5038C14.6745 20.5184 14.6612 20.5367 14.6449 20.5581C14.6123 20.6009 14.5675 20.6566 14.5103 20.721C14.3965 20.8489 14.2303 21.0148 14.01 21.18C13.5669 21.5123 12.8923 21.85 12 21.85C11.1077 21.85 10.4331 21.5123 9.98999 21.18C9.76971 21.0148 9.60345 20.8489 9.4897 20.721C9.43253 20.6566 9.38772 20.6009 9.35513 20.5581C9.33881 20.5367 9.32547 20.5184 9.31509 20.5038L9.30173 20.4847L9.2967 20.4774L9.29459 20.4742L9.29364 20.4728L9.29318 20.4721C9.29297 20.4718 9.29275 20.4715 9.99999 20L9.29275 20.4715C9.03235 20.0809 9.1379 19.5532 9.5285 19.2928Z" fill="black"/>
<path d="M24 2C24 3.10457 23.1046 4 22 4C20.8954 4 20 3.10457 20 2C20 0.895431 20.8954 0 22 0C23.1046 0 24 0.895431 24 2Z" fill="#FF3B30"/>
</svg>
