<svg width="168" height="40" viewBox="0 0 168 40" fill="none" xmlns="http://www.w3.org/2000/svg">
<g clip-path="url(#clip0_30_343)">
<g clip-path="url(#clip1_30_343)">
<g clip-path="url(#clip2_30_343)">
<path d="M32 0H8C3.58172 0 0 3.58172 0 8V32C0 36.4183 3.58172 40 8 40H32C36.4183 40 40 36.4183 40 32V8C40 3.58172 36.4183 0 32 0Z" fill="#303237"/>
<path d="M20.0041 8.00265C19.3435 8.00265 18.6828 8.00067 18.0202 8.00265C15.6791 8.01017 14.1011 10.292 14.9213 12.4777C14.9951 12.6757 15.0137 12.6788 15.1641 12.5386C16.7239 11.0849 18.5765 10.4397 20.6942 10.6358C22.2813 10.7819 23.661 11.4353 24.8208 12.5319C24.9795 12.6824 24.9954 12.6796 25.0728 12.4689C25.7862 10.5348 24.6502 8.47549 22.6369 8.05928C22.4227 8.01719 22.2048 7.99742 21.9865 8.00027C21.3259 8.00463 20.6652 8.00265 20.0041 8.00265Z" fill="white"/>
<path d="M14.6483 31.9804C14.8157 32.0006 24.9934 32.0089 25.3771 31.9871C25.258 31.9147 25.1604 31.8549 25.0624 31.7982C23.884 31.1147 23.0892 30.1314 22.7337 28.8111C22.694 28.6618 22.6452 28.636 22.5059 28.6923C21.4126 29.1213 20.2268 29.2614 19.0634 29.099C18.5187 29.0323 17.9851 28.8948 17.4762 28.6899C17.3647 28.6435 17.3048 28.6467 17.2679 28.7881C16.8997 30.1955 16.0307 31.2038 14.7681 31.896C14.7276 31.9182 14.688 31.9412 14.6491 31.965C14.6455 31.9646 14.6479 31.9745 14.6483 31.9804Z" fill="white"/>
<path d="M19.9887 20.2329C18.1972 20.2329 16.4061 20.2361 14.6149 20.2281C14.436 20.2281 14.3943 20.2749 14.4015 20.4456C14.4158 20.7948 14.4169 21.1453 14.4015 21.4942C14.3927 21.6867 14.4352 21.7473 14.6447 21.7465C17.8373 21.7386 21.0299 21.7367 24.2224 21.7409C24.6125 21.7409 25.0025 21.7318 25.3922 21.7453C25.5636 21.7512 25.5997 21.6934 25.5945 21.5346C25.5826 21.1655 25.5834 20.7956 25.5945 20.4258C25.5989 20.2745 25.5628 20.2277 25.4025 20.2277C23.8153 20.2345 22.2282 20.2317 20.6434 20.2317L19.9887 20.2329Z" fill="white"/>
<path d="M22.5726 18.8017C21.8285 18.3863 21.1563 17.8539 20.5819 17.2251C20.4128 17.0406 20.2498 16.8501 20.0974 16.6525C20.018 16.5519 19.9835 16.5428 19.9018 16.6493C19.4883 17.189 19.0097 17.6759 18.4769 18.0987C18.1436 18.3595 17.7912 18.595 17.4226 18.8033L22.5726 18.8017Z" fill="white"/>
<path d="M13.0191 20.6729C13.0191 20.2373 13.0155 19.8016 13.0214 19.366C13.0214 19.2452 12.9857 19.2076 12.8627 19.2076C12.4592 19.2108 12.0608 19.2021 11.6966 19.4341C11.1533 19.781 10.8907 20.4123 11.0426 21.0653C11.1768 21.6427 11.7172 22.1084 12.3278 22.1655C12.5048 22.1817 12.685 22.169 12.8627 22.1797C12.9865 22.1869 13.0214 22.1366 13.0214 22.0185C13.0147 21.5702 13.0191 21.1216 13.0191 20.6729Z" fill="white"/>
<path d="M27.0242 20.6911C27.0242 21.1128 27.0349 21.535 27.0194 21.956C27.0123 22.1476 27.0813 22.1817 27.2555 22.1829C27.6947 22.1853 28.109 22.1314 28.4594 21.832C28.9478 21.415 29.1212 20.8024 28.9141 20.1897C28.7296 19.6436 28.18 19.2432 27.5741 19.2128C27.0242 19.1854 27.0242 19.1854 27.0242 19.7224V20.6911Z" fill="white"/>
<path d="M22.0163 16.6699C20.9723 15.6997 20.2688 14.5342 20.0351 13.1113C20.0275 13.0705 20.0232 13.0018 20.0188 12.9307C20.0138 12.85 20.0086 12.7661 19.9982 12.7157C19.9877 12.7665 19.9826 12.8514 19.9777 12.9326C19.9733 13.005 19.9691 13.0745 19.9615 13.1145C19.9486 13.1752 19.9374 13.2365 19.9261 13.2977C19.9029 13.4233 19.8797 13.5489 19.8434 13.6705C19.2526 15.6506 17.9932 17.0402 16.1097 17.8683C15.6173 18.0831 15.0882 18.2015 14.5511 18.2172C14.4431 18.2207 14.3967 18.1974 14.4035 18.0786C14.4088 17.9857 14.4076 17.8924 14.4064 17.7991C14.4055 17.7273 14.4046 17.6556 14.4066 17.5839C14.4717 15.4094 15.4351 13.7509 17.3341 12.6891C18.788 11.8761 20.3394 11.7878 21.9087 12.347C23.2098 12.8103 24.1919 13.6661 24.8763 14.8625C25.4513 15.8672 25.637 16.957 25.5929 18.0987C25.5894 18.1993 25.5556 18.2219 25.4648 18.2176C25.2529 18.2092 25.042 18.1857 24.8335 18.1475C23.7471 17.9372 22.819 17.416 22.0163 16.6699Z" fill="white"/>
<path fill-rule="evenodd" clip-rule="evenodd" d="M14.7233 23.1405H19.9764C21.7474 23.1397 23.5189 23.1407 25.291 23.1436C25.3066 23.1437 25.3233 23.1424 25.3402 23.1412C25.4253 23.1347 25.5146 23.1279 25.4799 23.2902C25.3858 23.7301 25.2573 24.1602 25.0589 24.5618C24.3681 25.951 23.3043 26.9359 21.8286 27.446C20.4942 27.9042 19.1542 27.8816 17.8607 27.3272C16.0954 26.5747 14.98 25.2441 14.5435 23.367L14.5433 23.3658C14.4908 23.1405 14.4907 23.1405 14.7233 23.1405ZM20.1303 25.818C20.0863 25.8178 20.0422 25.8175 19.9982 25.8175C19.9559 25.8175 19.9136 25.8179 19.8712 25.8183C19.7815 25.8191 19.6916 25.8198 19.6014 25.8172C19.207 25.81 18.9042 25.5221 18.8872 25.1404C18.8828 24.9567 18.9496 24.7785 19.0736 24.6428C19.1976 24.5071 19.3694 24.4245 19.553 24.4121C19.8501 24.3947 20.1479 24.3947 20.445 24.4121C20.6285 24.4243 20.8001 24.5069 20.9239 24.6426C21.0477 24.7783 21.1141 24.9565 21.1092 25.14C21.0921 25.5213 20.789 25.8104 20.395 25.8175C20.3066 25.8189 20.2184 25.8184 20.1303 25.818Z" fill="white"/>
<path d="M100.542 26.515H103.33V18.3973L107.37 25.7563L111.391 18.3973V26.515H114.198V13.485H111.391L107.37 20.844L103.33 13.485H100.542V26.515Z" fill="#303237"/>
<path d="M164.729 26.515H167.877L162.566 13.485H159.437L154.126 26.515H157.256L158.09 24.4666H163.894L164.729 26.515ZM158.09 24.4666L160.992 17.3352L163.894 24.4666H158.09Z" fill="#303237"/>
<path d="M54.0588 26.515H56.8659V16.0075H60.9247V13.485H50V16.0075H54.0588V26.515Z" fill="#303237"/>
<path d="M75.314 13.485V18.6059H69.3775V13.485H66.5894V26.515H69.3775V21.1285H75.314V26.515H78.1021V13.485H75.314Z" fill="#303237"/>
<path d="M94.5112 13.485V16.0075H87.285V18.6059H91.4038V21.1285H87.285V23.9924H94.5112V26.515H84.4779V13.485H94.5112Z" fill="#303237"/>
<path d="M100.535 26.515H103.323V18.3973L107.363 25.7563L111.384 18.3973V26.515H114.191V13.485H111.384L107.363 20.844L103.323 13.485H100.535V26.515Z" fill="#303237"/>
<path d="M127.377 26.515H124.551V21.8113L119.449 13.485H122.711L125.954 19.1939L129.33 13.485H132.46L127.377 21.8113V26.515Z" fill="#303237"/>
<path fill-rule="evenodd" clip-rule="evenodd" d="M137.739 26.515H142.404C146.786 26.515 149.896 23.8027 149.896 19.9905C149.896 16.1782 146.786 13.485 142.404 13.485H137.739V16.0268H140.527V19.6778H137.739V26.515ZM140.527 23.9734V16.0268L142.765 16.0265C145.249 16.0265 147.013 17.6766 147.013 19.9905C147.013 22.3234 145.249 23.9734 142.765 23.9734H140.527Z" fill="#303237"/>
</g>
</g>
</g>
<defs>
<clipPath id="clip0_30_343">
<rect width="168" height="40" fill="white"/>
</clipPath>
<clipPath id="clip1_30_343">
<rect width="168" height="40" fill="white"/>
</clipPath>
<clipPath id="clip2_30_343">
<rect width="168" height="40" fill="white"/>
</clipPath>
</defs>
</svg>
