<svg width="19" height="14" viewBox="0 0 19 14" fill="none" xmlns="http://www.w3.org/2000/svg">
<path d="M7.6263 2.08463C8.04124 1.66971 8.04124 0.996959 7.6263 0.582032C7.21136 0.167104 6.53872 0.167104 6.12374 0.582032L0.457073 6.24874C0.249602 6.45614 0.145874 6.72814 0.145874 7C0.145874 7.14407 0.174547 7.28149 0.226497 7.40672C0.278347 7.53196 0.3552 7.6494 0.457073 7.75126L6.12374 13.4179C6.53872 13.8329 7.21136 13.8329 7.6263 13.4179C8.04124 13.003 8.04124 12.3303 7.6263 11.9154L3.77348 8.0625H17.5C18.0868 8.0625 18.5625 7.58678 18.5625 7C18.5625 6.41322 18.0868 5.9375 17.5 5.9375H3.77348L7.6263 2.08463Z" fill="#303237"/>
</svg>
